SILVERTORRENT Clean Verified Torrent Downloads
                                   
http://silvertorrent.org/ __________________ http://silvertorrent.org/

----------------------------------------------------------------------------------
 
http://www.aullidos.com/imagenes/caratulas-minis/the-collection.jpg[/IMG]

[[.....Why be the same as everyone else when YOU can be UNiQUE.....]]            



Release Name                             : The.Collection.2012.CAM.XViD-UNiQUE
Format                                   : AVI
Format/Info                              : Audio Video Interleave
File size                                : 1.37 GiB
Duration                                 : 1h 13mn
Overall bit rate                         : 2 671 Kbps
Writing application                      : VirtualDubMod 1.5.10.2 (build 2540/release)
Writing library                          : VirtualDubMod build 2540/release

Video
ID                                       : 0
Format                                   : MPEG-4 Visual
Format profile                           : Advanced Simple@L5
Format settings, BVOP                    : 2
Format settings, QPel                    : No
Format settings, GMC                     : No warppoints
Format settings, Matrix                  : Default (H.263)
Muxing mode                              : Packed bitstream
Codec ID                                 : XVID
Codec ID/Hint                            : XviD
Duration                                 : 1h 13mn
Bit rate                                 : 2 531 Kbps
Width                                    : 672 pixels
Height                                   : 338 pixels
Display aspect ratio                     : 1.988
Frame rate                               : 29.970 fps
Color space                              : YUV
Chroma subsampling                       : 4:2:0
Bit depth                                : 8 bits
Scan type                                : Progressive
Compression mode                         : Lossy
Bits/(Pixel*Frame)                       : 0.372
Stream size                              : 1.29 GiB (95%)
Writing library                          : XviD 64

Audio
ID                                       : 1
Format                                   : MPEG Audio
Format version                           : Version 1
Format profile                           : Layer 3
Codec ID                                 : 55
Codec ID/Hint                            : MP3
Duration                                 : 1h 13mn
Bit rate mode                            : Constant
Bit rate                                 : 128 Kbps
Channel(s)                               : 2 channels
Sampling rate                            : 48.0 KHz
Compression mode                         : Lossy
Stream size                              : 67.1 MiB (5%)
Alignment                                : Split accross interleaves
Interleave, duration                     : 33 ms (1.00 video frame)
Interleave, preload duration             : 500 ms
 
http://www.imdb.com/title/tt1748227/

Ratings: 6.9/10 from 1,981 users   Metascore: 36/100
Reviews: 24 user | 43 critic | 15 from Metacritic.com

A man who escapes from the vicious grips of the serial killer known as "The Collector" is blackmailed to rescue an innocent girl from the killer's booby-trapped warehouse.

Director:
Marcus Dunstan
Writers:
Patrick Melton, Marcus Dunstan, and 2 more credits ┬╗
Stars:
Josh Stewart, Emma Fitzpatrick and Christopher McDonald | See full cast and crew


Source Used ur mum............................................Thanks

Been awhile since did a cam so had a go at this ...............corrected AR totally reworked vid and colours and filtered the cam audio ..........more than watchable :)

Screens:
 
http://silvertorrent.org/index.php?page=torrent-details&id=8412bb538f34044212deddd6b2f3ec3ed8110874